<mxfile host="app.diagrams.net" modified="2024-05-21T10:52:47.370Z" agent="Mozilla/5.0 (Macintosh; Intel Mac OS X 10_15_7) AppleWebKit/537.36 (KHTML, like Gecko) Chrome/124.0.0.0 Safari/537.36" etag="-_MYNsCx3UnDen0rIRLW" version="24.4.4" type="github">
  <diagram id="C5RBs43oDa-KdzZeNtuy" name="Page-1">
    <mxGraphModel dx="1949" dy="1788" grid="1" gridSize="10" guides="1" tooltips="1" connect="1" arrows="1" fold="1" page="1" pageScale="1" pageWidth="827" pageHeight="1169" math="0" shadow="0">
      <root>
        <mxCell id="WIyWlLk6GJQsqaUBKTNV-0" />
        <mxCell id="WIyWlLk6GJQsqaUBKTNV-1" parent="WIyWlLk6GJQsqaUBKTNV-0" />
        <mxCell id="WIyWlLk6GJQsqaUBKTNV-2" value="" style="rounded=0;html=1;jettySize=auto;orthogonalLoop=1;fontSize=11;endArrow=block;endFill=0;endSize=8;strokeWidth=1;shadow=0;labelBackgroundColor=none;edgeStyle=orthogonalEdgeStyle;" parent="WIyWlLk6GJQsqaUBKTNV-1" source="WIyWlLk6GJQsqaUBKTNV-3" edge="1">
          <mxGeometry relative="1" as="geometry">
            <mxPoint x="220" y="170" as="targetPoint" />
          </mxGeometry>
        </mxCell>
        <mxCell id="P1vyBnKpcC6u5DVaAdGw-1" value="" style="edgeStyle=orthogonalEdgeStyle;rounded=0;orthogonalLoop=1;jettySize=auto;html=1;" edge="1" parent="WIyWlLk6GJQsqaUBKTNV-1" source="WIyWlLk6GJQsqaUBKTNV-3" target="P1vyBnKpcC6u5DVaAdGw-0">
          <mxGeometry relative="1" as="geometry" />
        </mxCell>
        <mxCell id="P1vyBnKpcC6u5DVaAdGw-10" value="" style="edgeStyle=orthogonalEdgeStyle;rounded=0;orthogonalLoop=1;jettySize=auto;html=1;" edge="1" parent="WIyWlLk6GJQsqaUBKTNV-1" source="WIyWlLk6GJQsqaUBKTNV-3" target="P1vyBnKpcC6u5DVaAdGw-8">
          <mxGeometry relative="1" as="geometry" />
        </mxCell>
        <mxCell id="WIyWlLk6GJQsqaUBKTNV-3" value="User clicks play" style="rounded=1;whiteSpace=wrap;html=1;fontSize=12;glass=0;strokeWidth=1;shadow=0;" parent="WIyWlLk6GJQsqaUBKTNV-1" vertex="1">
          <mxGeometry x="145" y="70" width="150" height="50" as="geometry" />
        </mxCell>
        <mxCell id="P1vyBnKpcC6u5DVaAdGw-3" value="" style="edgeStyle=orthogonalEdgeStyle;rounded=0;orthogonalLoop=1;jettySize=auto;html=1;" edge="1" parent="WIyWlLk6GJQsqaUBKTNV-1" source="P1vyBnKpcC6u5DVaAdGw-0" target="P1vyBnKpcC6u5DVaAdGw-2">
          <mxGeometry relative="1" as="geometry" />
        </mxCell>
        <mxCell id="P1vyBnKpcC6u5DVaAdGw-0" value="Play button switches to &quot;again&quot;" style="rounded=1;whiteSpace=wrap;html=1;fontSize=12;glass=0;strokeWidth=1;shadow=0;" vertex="1" parent="WIyWlLk6GJQsqaUBKTNV-1">
          <mxGeometry x="375" y="70" width="155" height="50" as="geometry" />
        </mxCell>
        <mxCell id="P1vyBnKpcC6u5DVaAdGw-2" value="User can click &quot;again&quot; at any time to clear the game" style="rounded=1;whiteSpace=wrap;html=1;fontSize=12;glass=0;strokeWidth=1;shadow=0;" vertex="1" parent="WIyWlLk6GJQsqaUBKTNV-1">
          <mxGeometry x="375" y="-20" width="155" height="50" as="geometry" />
        </mxCell>
        <mxCell id="P1vyBnKpcC6u5DVaAdGw-7" value="" style="edgeStyle=orthogonalEdgeStyle;rounded=0;orthogonalLoop=1;jettySize=auto;html=1;" edge="1" parent="WIyWlLk6GJQsqaUBKTNV-1" source="P1vyBnKpcC6u5DVaAdGw-5" target="P1vyBnKpcC6u5DVaAdGw-6">
          <mxGeometry relative="1" as="geometry" />
        </mxCell>
        <mxCell id="P1vyBnKpcC6u5DVaAdGw-12" value="" style="edgeStyle=orthogonalEdgeStyle;rounded=0;orthogonalLoop=1;jettySize=auto;html=1;" edge="1" parent="WIyWlLk6GJQsqaUBKTNV-1" source="P1vyBnKpcC6u5DVaAdGw-5" target="P1vyBnKpcC6u5DVaAdGw-11">
          <mxGeometry relative="1" as="geometry" />
        </mxCell>
        <mxCell id="P1vyBnKpcC6u5DVaAdGw-5" value="Random number generated (hidden from user)" style="rounded=1;whiteSpace=wrap;html=1;" vertex="1" parent="WIyWlLk6GJQsqaUBKTNV-1">
          <mxGeometry x="145" y="170" width="150" height="60" as="geometry" />
        </mxCell>
        <mxCell id="P1vyBnKpcC6u5DVaAdGw-6" value="This number is hidden in the &quot;number&quot; DOM element" style="rounded=1;whiteSpace=wrap;html=1;" vertex="1" parent="WIyWlLk6GJQsqaUBKTNV-1">
          <mxGeometry x="375" y="165" width="175" height="70" as="geometry" />
        </mxCell>
        <mxCell id="P1vyBnKpcC6u5DVaAdGw-8" value="&quot;message&quot; element changes from &quot;Get started&quot; to &quot;Start guessing...&quot;" style="rounded=1;whiteSpace=wrap;html=1;fontSize=12;glass=0;strokeWidth=1;shadow=0;" vertex="1" parent="WIyWlLk6GJQsqaUBKTNV-1">
          <mxGeometry x="-90" y="65" width="190" height="60" as="geometry" />
        </mxCell>
        <mxCell id="P1vyBnKpcC6u5DVaAdGw-14" value="" style="edgeStyle=orthogonalEdgeStyle;rounded=0;orthogonalLoop=1;jettySize=auto;html=1;" edge="1" parent="WIyWlLk6GJQsqaUBKTNV-1" source="P1vyBnKpcC6u5DVaAdGw-11" target="P1vyBnKpcC6u5DVaAdGw-13">
          <mxGeometry relative="1" as="geometry" />
        </mxCell>
        <mxCell id="P1vyBnKpcC6u5DVaAdGw-20" value="" style="edgeStyle=orthogonalEdgeStyle;rounded=0;orthogonalLoop=1;jettySize=auto;html=1;" edge="1" parent="WIyWlLk6GJQsqaUBKTNV-1" source="P1vyBnKpcC6u5DVaAdGw-11" target="P1vyBnKpcC6u5DVaAdGw-19">
          <mxGeometry relative="1" as="geometry" />
        </mxCell>
        <mxCell id="P1vyBnKpcC6u5DVaAdGw-26" value="" style="edgeStyle=orthogonalEdgeStyle;rounded=0;orthogonalLoop=1;jettySize=auto;html=1;" edge="1" parent="WIyWlLk6GJQsqaUBKTNV-1" source="P1vyBnKpcC6u5DVaAdGw-11" target="P1vyBnKpcC6u5DVaAdGw-25">
          <mxGeometry relative="1" as="geometry" />
        </mxCell>
        <mxCell id="P1vyBnKpcC6u5DVaAdGw-11" value="User enters a number into the &quot;.guess&quot; element" style="whiteSpace=wrap;html=1;rounded=1;" vertex="1" parent="WIyWlLk6GJQsqaUBKTNV-1">
          <mxGeometry x="145" y="310" width="150" height="70" as="geometry" />
        </mxCell>
        <mxCell id="P1vyBnKpcC6u5DVaAdGw-16" value="" style="edgeStyle=orthogonalEdgeStyle;rounded=0;orthogonalLoop=1;jettySize=auto;html=1;" edge="1" parent="WIyWlLk6GJQsqaUBKTNV-1" source="P1vyBnKpcC6u5DVaAdGw-13" target="P1vyBnKpcC6u5DVaAdGw-15">
          <mxGeometry relative="1" as="geometry" />
        </mxCell>
        <mxCell id="P1vyBnKpcC6u5DVaAdGw-18" value="" style="edgeStyle=orthogonalEdgeStyle;rounded=0;orthogonalLoop=1;jettySize=auto;html=1;" edge="1" parent="WIyWlLk6GJQsqaUBKTNV-1" source="P1vyBnKpcC6u5DVaAdGw-13" target="P1vyBnKpcC6u5DVaAdGw-17">
          <mxGeometry relative="1" as="geometry" />
        </mxCell>
        <mxCell id="P1vyBnKpcC6u5DVaAdGw-13" value="Number too high" style="rhombus;whiteSpace=wrap;html=1;rounded=1;" vertex="1" parent="WIyWlLk6GJQsqaUBKTNV-1">
          <mxGeometry x="375" y="297.5" width="106" height="95" as="geometry" />
        </mxCell>
        <mxCell id="P1vyBnKpcC6u5DVaAdGw-15" value="Score decreases by 1" style="rhombus;whiteSpace=wrap;html=1;rounded=1;" vertex="1" parent="WIyWlLk6GJQsqaUBKTNV-1">
          <mxGeometry x="574" y="292.5" width="156" height="105" as="geometry" />
        </mxCell>
        <mxCell id="P1vyBnKpcC6u5DVaAdGw-17" value="&quot;message&quot; text says &quot;too high&quot;" style="rhombus;whiteSpace=wrap;html=1;rounded=1;" vertex="1" parent="WIyWlLk6GJQsqaUBKTNV-1">
          <mxGeometry x="355.5" y="472.5" width="145" height="117.5" as="geometry" />
        </mxCell>
        <mxCell id="P1vyBnKpcC6u5DVaAdGw-22" value="" style="edgeStyle=orthogonalEdgeStyle;rounded=0;orthogonalLoop=1;jettySize=auto;html=1;" edge="1" parent="WIyWlLk6GJQsqaUBKTNV-1" source="P1vyBnKpcC6u5DVaAdGw-19" target="P1vyBnKpcC6u5DVaAdGw-21">
          <mxGeometry relative="1" as="geometry" />
        </mxCell>
        <mxCell id="P1vyBnKpcC6u5DVaAdGw-24" value="" style="edgeStyle=orthogonalEdgeStyle;rounded=0;orthogonalLoop=1;jettySize=auto;html=1;" edge="1" parent="WIyWlLk6GJQsqaUBKTNV-1" source="P1vyBnKpcC6u5DVaAdGw-19" target="P1vyBnKpcC6u5DVaAdGw-23">
          <mxGeometry relative="1" as="geometry" />
        </mxCell>
        <mxCell id="P1vyBnKpcC6u5DVaAdGw-19" value="Number too low" style="rhombus;whiteSpace=wrap;html=1;rounded=1;" vertex="1" parent="WIyWlLk6GJQsqaUBKTNV-1">
          <mxGeometry x="-50" y="305" width="80" height="80" as="geometry" />
        </mxCell>
        <mxCell id="P1vyBnKpcC6u5DVaAdGw-21" value="score decreases by 1" style="rhombus;whiteSpace=wrap;html=1;rounded=1;" vertex="1" parent="WIyWlLk6GJQsqaUBKTNV-1">
          <mxGeometry x="-210" y="305" width="80" height="80" as="geometry" />
        </mxCell>
        <mxCell id="P1vyBnKpcC6u5DVaAdGw-23" value="message says &quot;too low&quot;" style="rhombus;whiteSpace=wrap;html=1;rounded=1;" vertex="1" parent="WIyWlLk6GJQsqaUBKTNV-1">
          <mxGeometry x="-50" y="465" width="80" height="80" as="geometry" />
        </mxCell>
        <mxCell id="P1vyBnKpcC6u5DVaAdGw-28" value="" style="edgeStyle=orthogonalEdgeStyle;rounded=0;orthogonalLoop=1;jettySize=auto;html=1;" edge="1" parent="WIyWlLk6GJQsqaUBKTNV-1" source="P1vyBnKpcC6u5DVaAdGw-25" target="P1vyBnKpcC6u5DVaAdGw-27">
          <mxGeometry relative="1" as="geometry" />
        </mxCell>
        <mxCell id="P1vyBnKpcC6u5DVaAdGw-25" value="number matches hidden number" style="whiteSpace=wrap;html=1;rounded=1;" vertex="1" parent="WIyWlLk6GJQsqaUBKTNV-1">
          <mxGeometry x="145" y="460" width="150" height="70" as="geometry" />
        </mxCell>
        <mxCell id="P1vyBnKpcC6u5DVaAdGw-27" value="score is saved into &quot;high score&quot; and message changes to &quot;you win!&quot;" style="whiteSpace=wrap;html=1;rounded=1;" vertex="1" parent="WIyWlLk6GJQsqaUBKTNV-1">
          <mxGeometry x="145" y="610" width="150" height="60" as="geometry" />
        </mxCell>
      </root>
    </mxGraphModel>
  </diagram>
</mxfile>
